Light Narrow — SC 1.ufo
<glyph name="a.sc" format="1">
  <advance width="1136"/>
  <outline>
    <contour>
      <point x="685" y="1292" type="move" name="top"/>
    </contour>
    <contour>
      <point x="910" y="-121" type="move" name="ogonek"/>
    </contour>
    <contour>
      <point x="483" y="-121" type="move" name="bottom"/>
    </contour>
    <contour>
      <point x="-99" y="62" type="line"/>
      <point x="-106" y="0" type="line"/>
      <point x="302" y="0" type="line"/>
      <point x="307" y="62" type="line"/>
      <point x="151" y="84" type="line"/>
      <point x="600" y="1067" type="line"/>
      <point x="689" y="1245" type="line"/>
      <point x="650" y="1251" type="line"/>
      <point x="668" y="1076" type="line"/>
      <point x="823" y="82" type="line"/>
      <point x="672" y="62" type="line"/>
      <point x="667" y="0" type="line"/>
      <point x="1115" y="0" type="line"/>
      <point x="1119" y="62" type="line"/>
      <point x="979" y="86" type="line"/>
      <point x="765" y="1303" type="line"/>
      <point x="610" y="1303" type="line"/>
      <point x="19" y="82" type="line"/>
    </contour>
    <contour>
      <point x="245" y="474" type="line"/>
      <point x="227" y="386" type="line"/>
      <point x="807" y="386" type="line"/>
      <point x="807" y="474" type="line"/>
    </contour>
  </outline>
</glyph>
<glyph name="ae.sc" format="1">
  <advance width="1582"/>
  <outline>
    <contour>
      <point x="988" y="1292" type="move" name="top"/>
    </contour>
    <contour>
      <point x="588" y="62" type="line"/>
      <point x="579" y="0" type="line"/>
      <point x="1444" y="0" type="line"/>
      <point x="1504" y="270" type="line"/>
      <point x="1420" y="290" type="line"/>
      <point x="1336" y="102" type="line"/>
      <point x="855" y="84" type="line"/>
      <point x="922" y="620" type="line"/>
      <point x="1295" y="608" type="line"/>
      <point x="1308" y="732" type="line"/>
      <point x="931" y="712" type="line"/>
      <point x="998" y="1214" type="line"/>
      <point x="1383" y="1204" type="line"/>
      <point x="1411" y="1036" type="line"/>
      <point x="1498" y="1036" type="line"/>
      <point x="1508" y="1292" type="line"/>
      <point x="362" y="1292" type="line"/>
      <point x="352" y="1220" type="line"/>
      <point x="611" y="1204" type="line"/>
      <point x="8" y="82" type="line"/>
      <point x="-132" y="62" type="line"/>
      <point x="-141" y="0" type="line"/>
      <point x="336" y="0" type="line"/>
      <point x="340" y="62" type="line"/>
      <point x="154" y="84" type="line"/>
      <point x="320" y="416" type="line"/>
      <point x="742" y="416" type="line"/>
      <point x="702" y="82" type="line"/>
    </contour>
    <contour>
      <point x="366" y="504" type="line"/>
      <point x="723" y="1206" type="line"/>
      <point x="839" y="1202" type="line"/>
      <point x="751" y="504" type="line"/>
    </contour>
  </outline>
</glyph>
<glyph name="b.sc" format="1">
  <advance width="1099"/>
  <outline>
    <contour>
      <point x="637" y="1292" type="move" name="top"/>
    </contour>
    <contour>
      <point x="486" y="0" type="move" name="bottom"/>
    </contour>
    <contour>
      <point x="432" y="-12" type="curve"/>
      <point x="749" y="-12"/>
      <point x="1006" y="108"/>
      <point x="1006" y="418" type="curve"/>
      <point x="1006" y="563"/>
      <point x="892" y="669"/>
      <point x="744" y="686" type="curve"/>
      <point x="916" y="732"/>
      <point x="1021" y="849"/>
      <point x="1020" y="1034" type="curve"/>
      <point x="1021" y="1175"/>
      <point x="921" y="1306"/>
      <point x="647" y="1306" type="curve"/>
      <point x="558" y="1306"/>
      <point x="479" y="1294"/>
      <point x="401" y="1292" type="curve"/>
      <point x="185" y="1292" type="line"/>
      <point x="179" y="1222" type="line"/>
      <point x="293" y="1204" type="line"/>
      <point x="140" y="84" type="line"/>
      <point x="15" y="62" type="line"/>
      <point x="8" y="0" type="line"/>
      <point x="200" y="0" type="line" smooth="yes"/>
      <point x="262" y="0"/>
      <point x="363" y="-12"/>
    </contour>
    <contour>
      <point x="464" y="75" type="curve"/>
      <point x="412" y="75"/>
      <point x="268" y="83"/>
      <point x="282" y="98" type="curve"/>
      <point x="281" y="17" type="line"/>
      <point x="454" y="1285" type="line"/>
      <point x="423" y="1208" type="line"/>
      <point x="431" y="1214"/>
      <point x="564" y="1224"/>
      <point x="611" y="1224" type="curve"/>
      <point x="795" y="1224"/>
      <point x="869" y="1152"/>
      <point x="871" y="1017" type="curve"/>
      <point x="871" y="800"/>
      <point x="725" y="715"/>
      <point x="562" y="715" type="curve"/>
      <point x="513" y="715"/>
      <point x="390" y="714"/>
      <point x="337" y="714" type="curve"/>
      <point x="325" y="621" type="line"/>
      <point x="367" y="622"/>
      <point x="489" y="623"/>
      <point x="578" y="623" type="curve"/>
      <point x="752" y="623"/>
      <point x="843" y="551"/>
      <point x="844" y="403" type="curve"/>
      <point x="846" y="160"/>
      <point x="685" y="75"/>
    </contour>
  </outline>
</glyph>
<glyph name="c.sc" format="1">
  <advance width="1052"/>
  <outline>
    <contour>
      <point x="657" y="1307" type="move" name="top"/>
    </contour>
    <contour>
      <point x="527" y="0" type="move" name="bottom"/>
    </contour>
    <contour>
      <point x="523" y="-14" type="curve"/>
      <point x="703" y="-14"/>
      <point x="839" y="41"/>
      <point x="907" y="66" type="curve"/>
      <point x="942" y="342" type="line"/>
      <point x="850" y="342" type="line"/>
      <point x="802" y="167"/>
      <point x="814" y="222"/>
      <point x="793" y="156" type="curve"/>
      <point x="744" y="98"/>
      <point x="628" y="74"/>
      <point x="549" y="74" type="curve"/>
      <point x="325" y="74"/>
      <point x="242" y="312"/>
      <point x="238" y="548" type="curve"/>
      <point x="234" y="846"/>
      <point x="378" y="1222"/>
      <point x="694" y="1222" type="curve"/>
      <point x="795" y="1222"/>
      <point x="847" y="1204"/>
      <point x="886" y="1180" type="curve"/>
      <point x="896" y="944" type="line"/>
      <point x="993" y="944" type="line"/>
      <point x="1046" y="1255" type="line"/>
      <point x="961" y="1281"/>
      <point x="872" y="1306"/>
      <point x="713" y="1306" type="curve"/>
      <point x="362" y="1306"/>
      <point x="68" y="1002"/>
      <point x="73" y="534" type="curve"/>
      <point x="76" y="266"/>
      <point x="199" y="-14"/>
    </contour>
  </outline>
</glyph>
<glyph name="d.sc" format="1">
  <advance width="1213"/>
  <outline>
    <contour>
      <point x="665" y="1292" type="move" name="top"/>
    </contour>
    <contour>
      <point x="495" y="0" type="move" name="bottom"/>
    </contour>
    <contour>
      <point x="477" y="-14" type="curve"/>
      <point x="914" y="-14"/>
      <point x="1147" y="334"/>
      <point x="1154" y="783" type="curve"/>
      <point x="1159" y="1090"/>
      <point x="1017" y="1306"/>
      <point x="667" y="1306" type="curve"/>
      <point x="582" y="1306"/>
      <point x="497" y="1294"/>
      <point x="417" y="1292" type="curve"/>
      <point x="187" y="1292" type="line"/>
      <point x="180" y="1222" type="line"/>
      <point x="293" y="1204" type="line"/>
      <point x="140" y="84" type="line"/>
      <point x="14" y="62" type="line"/>
      <point x="6" y="0" type="line"/>
      <point x="213" y="0" type="line" smooth="yes"/>
      <point x="305" y="0"/>
      <point x="409" y="-14"/>
    </contour>
    <contour>
      <point x="510" y="72" type="curve"/>
      <point x="449" y="72"/>
      <point x="313" y="83"/>
      <point x="262" y="103" type="curve"/>
      <point x="284" y="20" type="line"/>
      <point x="457" y="1280" type="line"/>
      <point x="417" y="1202" type="line"/>
      <point x="460" y="1209"/>
      <point x="556" y="1224"/>
      <point x="633" y="1224" type="curve"/>
      <point x="898" y="1224"/>
      <point x="1002" y="1079"/>
      <point x="997" y="770" type="curve"/>
      <point x="992" y="438"/>
      <point x="842" y="73"/>
    </contour>
  </outline>
</glyph>
<glyph name="e.sc" format="1">
  <advance width="1053"/>
  <outline>
    <contour>
      <point x="622" y="1292" type="move" name="top"/>
    </contour>
    <contour>
      <point x="799" y="0" type="move" name="ogonek"/>
    </contour>
    <contour>
      <point x="493" y="0" type="move" name="bottom"/>
    </contour>
    <contour>
      <point x="986" y="1292" type="line"/>
      <point x="190" y="1292" type="line"/>
      <point x="180" y="1222" type="line"/>
      <point x="295" y="1204" type="line"/>
      <point x="142" y="82" type="line"/>
      <point x="14" y="62" type="line"/>
      <point x="6" y="0" type="line"/>
      <point x="900" y="0" type="line"/>
      <point x="977" y="282" type="line"/>
      <point x="893" y="305" type="line"/>
      <point x="795" y="104" type="line"/>
      <point x="295" y="87" type="line"/>
      <point x="368" y="623" type="line"/>
      <point x="771" y="609" type="line"/>
      <point x="782" y="725" type="line"/>
      <point x="381" y="718" type="line"/>
      <point x="451" y="1216" type="line"/>
      <point x="861" y="1205" type="line"/>
      <point x="887" y="1023" type="line"/>
      <point x="973" y="1023" type="line"/>
    </contour>
  </outline>
</glyph>
<glyph name="ezh.sc" format="1">
  <advance width="1008"/>
  <outline>
    <contour>
      <point x="381" y="-10" type="curve"/>
      <point x="718" y="-10"/>
      <point x="931" y="184"/>
      <point x="935" y="442" type="curve"/>
      <point x="939" y="657"/>
      <point x="766" y="765"/>
      <point x="538" y="758" type="curve"/>
      <point x="498" y="695" type="line"/>
      <point x="967" y="1218" type="line"/>
      <point x="977" y="1292" type="line"/>
      <point x="229" y="1292" type="line"/>
      <point x="201" y="990" type="line"/>
      <point x="290" y="990" type="line"/>
      <point x="340" y="1178" type="line"/>
      <point x="795" y="1178" type="line"/>
      <point x="688" y="1052" type="line"/>
      <point x="357" y="672" type="line"/>
      <point x="388" y="634" type="line"/>
      <point x="424" y="646"/>
      <point x="458" y="656"/>
      <point x="511" y="656" type="curve"/>
      <point x="676" y="653"/>
      <point x="774" y="570"/>
      <point x="771" y="424" type="curve"/>
      <point x="769" y="253"/>
      <point x="651" y="80"/>
      <point x="408" y="80" type="curve"/>
      <point x="266" y="80"/>
      <point x="199" y="120"/>
      <point x="198" y="128" type="curve"/>
      <point x="188" y="342" type="line"/>
      <point x="109" y="342" type="line"/>
      <point x="59" y="52" type="line" smooth="yes"/>
      <point x="63" y="50"/>
      <point x="228" y="-10"/>
    </contour>
  </outline>
</glyph>
<glyph name="f.sc" format="1">
  <advance width="987"/>
  <outline>
    <contour>
      <point x="631" y="1292" type="move" name="top"/>
    </contour>
    <contour>
      <point x="15" y="62" type="line"/>
      <point x="8" y="0" type="line"/>
      <point x="492" y="0" type="line"/>
      <point x="498" y="62" type="line"/>
      <point x="294" y="86" type="line"/>
      <point x="366" y="618" type="line"/>
      <point x="791" y="603" type="line"/>
      <point x="803" y="722" type="line"/>
      <point x="381" y="715" type="line"/>
      <point x="449" y="1214" type="line"/>
      <point x="880" y="1202" type="line"/>
      <point x="897" y="1022" type="line"/>
      <point x="992" y="1022" type="line"/>
      <point x="1014" y="1292" type="line"/>
      <point x="188" y="1292" type="line"/>
      <point x="178" y="1222" type="line"/>
      <point x="295" y="1204" type="line"/>
      <point x="140" y="84" type="line"/>
    </contour>
  </outline>
</glyph>
<glyph name="g.sc" format="1">
  <advance width="1148"/>
  <outline>
    <contour>
      <point x="717" y="1292" type="move" name="top"/>
    </contour>
    <contour>
      <point x="573" y="0" type="move" name="bottom"/>
    </contour>
    <contour>
      <point x="520" y="-14" type="curve"/>
      <point x="656" y="-14"/>
      <point x="776" y="25"/>
      <point x="862" y="51" type="curve"/>
      <point x="907" y="65"/>
      <point x="946" y="76"/>
      <point x="979" y="79" type="curve"/>
      <point x="1057" y="618" type="line"/>
      <point x="671" y="618" type="line"/>
      <point x="662" y="534" type="line"/>
      <point x="887" y="520" type="line"/>
      <point x="836" y="150" type="line"/>
      <point x="772" y="96"/>
      <point x="653" y="72"/>
      <point x="560" y="72" type="curve"/>
      <point x="342" y="72"/>
      <point x="250" y="306"/>
      <point x="247" y="550" type="curve"/>
      <point x="247" y="856"/>
      <point x="391" y="1224"/>
      <point x="708" y="1224" type="curve"/>
      <point x="832" y="1224"/>
      <point x="896" y="1202"/>
      <point x="945" y="1169" type="curve"/>
      <point x="948" y="994" type="line"/>
      <point x="1047" y="994" type="line"/>
      <point x="1097" y="1250" type="line"/>
      <point x="1030" y="1250"/>
      <point x="955" y="1306"/>
      <point x="722" y="1306" type="curve"/>
      <point x="368" y="1306"/>
      <point x="81" y="998"/>
      <point x="87" y="532" type="curve"/>
      <point x="90" y="266"/>
      <point x="215" y="-14"/>
    </contour>
  </outline>
</glyph>
<glyph name="germandbls.sc" format="1">
  <advance width="1201"/>
  <outline>
    <contour>
      <point x="725" y="-18" type="curve"/>
      <point x="970" y="-18"/>
      <point x="1100" y="211"/>
      <point x="1106" y="396" type="curve"/>
      <point x="1116" y="666"/>
      <point x="911" y="761"/>
      <point x="772" y="758" type="curve"/>
      <point x="1066" y="1113" type="line"/>
      <point x="1089" y="1201" type="line"/>
      <point x="1028" y="1247"/>
      <point x="943" y="1301"/>
      <point x="744" y="1301" type="curve"/>
      <point x="443" y="1301"/>
      <point x="250" y="1060"/>
      <point x="208" y="775" type="curve"/>
      <point x="111" y="92" type="line"/>
      <point x="5" y="73" type="line"/>
      <point x="0" y="0" type="line"/>
      <point x="255" y="0" type="line"/>
      <point x="354" y="711" type="line" smooth="yes"/>
      <point x="402" y="1068"/>
      <point x="519" y="1221"/>
      <point x="716" y="1221" type="curve"/>
      <point x="862" y="1219"/>
      <point x="943" y="1172"/>
      <point x="963" y="1130" type="curve"/>
      <point x="674" y="774" type="line"/>
      <point x="664" y="704" type="line"/>
      <point x="811" y="709"/>
      <point x="966" y="620"/>
      <point x="959" y="387" type="curve"/>
      <point x="952" y="199"/>
      <point x="861" y="63"/>
      <point x="740" y="63" type="curve"/>
      <point x="657" y="63"/>
      <point x="580" y="96"/>
      <point x="561" y="131" type="curve"/>
      <point x="548" y="273" type="line"/>
      <point x="461" y="273" type="line"/>
      <point x="427" y="54" type="line"/>
      <point x="475" y="48"/>
      <point x="567" y="-18"/>
    </contour>
  </outline>
</glyph>
<glyph name="h.sc" format="1">
  <advance width="1299"/>
  <outline>
    <contour>
      <point x="753" y="1292" type="move" name="top"/>
    </contour>
    <contour>
      <point x="587" y="0" type="move" name="bottom"/>
    </contour>
    <contour>
      <point x="16" y="62" type="line"/>
      <point x="8" y="0" type="line"/>
      <point x="417" y="0" type="line"/>
      <point x="425" y="62" type="line"/>
      <point x="292" y="84" type="line"/>
      <point x="445" y="1204" type="line"/>
      <point x="575" y="1222" type="line"/>
      <point x="584" y="1292" type="line"/>
      <point x="184" y="1292" type="line"/>
      <point x="175" y="1222" type="line"/>
      <point x="291" y="1204" type="line"/>
      <point x="138" y="84" type="line"/>
    </contour>
    <contour>
      <point x="327" y="705" type="line"/>
      <point x="326" y="613" type="line"/>
      <point x="1001" y="613" type="line"/>
      <point x="1002" y="705" type="line"/>
    </contour>
    <contour>
      <point x="738" y="62" type="line"/>
      <point x="735" y="0" type="line"/>
      <point x="1147" y="0" type="line"/>
      <point x="1157" y="62" type="line"/>
      <point x="1028" y="84" type="line"/>
      <point x="1181" y="1204" type="line"/>
      <point x="1302" y="1222" type="line"/>
      <point x="1310" y="1292" type="line"/>
      <point x="909" y="1292" type="line"/>
      <point x="901" y="1222" type="line"/>
      <point x="1027" y="1204" type="line"/>
      <point x="876" y="84" type="line"/>
    </contour>
  </outline>
</glyph>
<glyph name="i.sc" format="1">
  <advance width="597"/>
  <outline>
    <contour>
      <point x="415" y="1383" type="move" name="top"/>
    </contour>
    <contour>
      <point x="319" y="0" type="move" name="ogonek"/>
    </contour>
    <contour>
      <point x="231" y="0" type="move" name="bottom"/>
    </contour>
    <contour>
      <point x="28" y="62" type="line"/>
      <point x="21" y="0" type="line"/>
      <point x="434" y="0" type="line"/>
      <point x="441" y="62" type="line"/>
      <point x="306" y="88" type="line"/>
      <point x="459" y="1204" type="line"/>
      <point x="589" y="1222" type="line"/>
      <point x="598" y="1292" type="line"/>
      <point x="200" y="1292" type="line"/>
      <point x="190" y="1222" type="line"/>
      <point x="307" y="1204" type="line"/>
      <point x="154" y="88" type="line"/>
    </contour>
  </outline>
</glyph>
<glyph name="j.sc" format="1">
  <advance width="596"/>
  <outline>
    <contour>
      <point x="229" y="-142" type="move" name="btm"/>
    </contour>
    <contour>
      <point x="405" y="1292" type="move" name="top"/>
    </contour>
    <contour>
      <point x="467" y="1206" type="curve"/>
      <point x="610" y="1222" type="line"/>
      <point x="618" y="1292" type="line"/>
      <point x="189" y="1292" type="line"/>
      <point x="181" y="1222" type="line"/>
      <point x="319" y="1206" type="line"/>
      <point x="274" y="833"/>
      <point x="217" y="407"/>
      <point x="171" y="131" type="curve"/>
      <point x="149" y="-4"/>
      <point x="51" y="-179"/>
      <point x="-134" y="-231" type="curve"/>
      <point x="-107" y="-292" type="line"/>
      <point x="92" y="-257"/>
      <point x="263" y="-124"/>
      <point x="309" y="107" type="curve"/>
      <point x="325" y="191"/>
      <point x="401" y="717"/>
    </contour>
  </outline>
</glyph>
<glyph name="k.sc" format="1">
  <advance width="1161"/>
  <outline>
    <contour>
      <point x="704" y="1292" type="move" name="top"/>
    </contour>
    <contour>
      <point x="562" y="0" type="move" name="bottom"/>
    </contour>
    <contour>
      <point x="15" y="62" type="line"/>
      <point x="6" y="0" type="line"/>
      <point x="417" y="0" type="line"/>
      <point x="424" y="62" type="line"/>
      <point x="291" y="84" type="line"/>
      <point x="447" y="1204" type="line"/>
      <point x="576" y="1222" type="line"/>
      <point x="585" y="1292" type="line"/>
      <point x="187" y="1292" type="line"/>
      <point x="179" y="1222" type="line"/>
      <point x="293" y="1204" type="line"/>
      <point x="138" y="84" type="line"/>
    </contour>
    <contour>
      <point x="334" y="532" type="line"/>
      <point x="328" y="405" type="line"/>
      <point x="540" y="628" type="line"/>
      <point x="600" y="687" type="line"/>
      <point x="1082" y="1206" type="line"/>
      <point x="1183" y="1222" type="line"/>
      <point x="1193" y="1292" type="line"/>
      <point x="837" y="1292" type="line"/>
      <point x="827" y="1222" type="line"/>
      <point x="946" y="1204" type="line"/>
    </contour>
    <contour>
      <point x="867" y="0" type="curve"/>
      <point x="1094" y="0" type="line"/>
      <point x="1106" y="68" type="line"/>
      <point x="995" y="97" type="line"/>
      <point x="957" y="118"/>
      <point x="928" y="167"/>
      <point x="818" y="355" type="curve"/>
      <point x="771" y="435"/>
      <point x="648" y="660"/>
      <point x="597" y="738" type="curve"/>
      <point x="499" y="642" type="line"/>
      <point x="561" y="526"/>
      <point x="632" y="396"/>
      <point x="689" y="291" type="curve"/>
      <point x="754" y="168"/>
      <point x="836" y="0"/>
    </contour>
  </outline>
</glyph>
<glyph name="l.sc" format="1">
  <advance width="1000"/>
  <outline>
    <contour>
      <point x="723" y="966" type="move" name="car"/>
    </contour>
    <contour>
      <point x="396" y="1292" type="move" name="top"/>
    </contour>
    <contour>
      <point x="464" y="0" type="move" name="bottom"/>
    </contour>
    <contour>
      <point x="15" y="62" type="line"/>
      <point x="6" y="0" type="line"/>
      <point x="844" y="0" type="line"/>
      <point x="929" y="380" type="line"/>
      <point x="843" y="395" type="line"/>
      <point x="723" y="91" type="line"/>
      <point x="289" y="84" type="line"/>
      <point x="444" y="1204" type="line"/>
      <point x="591" y="1222" type="line"/>
      <point x="600" y="1292" type="line"/>
      <point x="184" y="1292" type="line"/>
      <point x="175" y="1222" type="line"/>
      <point x="290" y="1204" type="line"/>
      <point x="136" y="84" type="line"/>
    </contour>
  </outline>
</glyph>
<glyph name="m.sc" format="1">
  <advance width="1602"/>
  <outline>
    <contour>
      <point x="903" y="1292" type="move" name="top"/>
    </contour>
    <contour>
      <point x="708" y="0" type="move" name="bottom"/>
    </contour>
    <contour>
      <point x="-20" y="62" type="line"/>
      <point x="-27" y="0" type="line"/>
      <point x="407" y="0" type="line"/>
      <point x="411" y="62" type="line"/>
      <point x="242" y="84" type="line"/>
      <point x="410" y="876" type="line"/>
      <point x="483" y="1216" type="line"/>
      <point x="537" y="882" type="line"/>
      <point x="679" y="-16" type="line"/>
      <point x="763" y="-4" type="line"/>
      <point x="1172" y="904" type="line"/>
      <point x="1303" y="1218" type="line"/>
      <point x="1279" y="862" type="line"/>
      <point x="1240" y="82" type="line"/>
      <point x="1083" y="64" type="line"/>
      <point x="1077" y="0" type="line"/>
      <point x="1530" y="0" type="line"/>
      <point x="1535" y="62" type="line"/>
      <point x="1391" y="84" type="line"/>
      <point x="1426" y="1204" type="line"/>
      <point x="1579" y="1222" type="line"/>
      <point x="1587" y="1292" type="line"/>
      <point x="1241" y="1292" type="line"/>
      <point x="855" y="370" type="line"/>
      <point x="770" y="173" type="line"/>
      <point x="743" y="416" type="line"/>
      <point x="610" y="1292" type="line"/>
      <point x="239" y="1292" type="line"/>
      <point x="229" y="1222" type="line"/>
      <point x="387" y="1204" type="line"/>
      <point x="125" y="84" type="line"/>
    </contour>
  </outline>
</glyph>
<glyph name="n.sc" format="1">
  <advance width="1284"/>
  <outline>
    <contour>
      <point x="729" y="1292" type="move" name="top"/>
    </contour>
    <contour>
      <point x="610" y="0" type="move" name="bottom"/>
    </contour>
    <contour>
      <point x="15" y="62" type="line"/>
      <point x="6" y="0" type="line"/>
      <point x="396" y="0" type="line"/>
      <point x="405" y="62" type="line"/>
      <point x="257" y="84" type="line"/>
      <point x="395" y="1220" type="line"/>
      <point x="362" y="1216" type="line"/>
      <point x="451" y="957" type="line"/>
      <point x="857" y="0" type="line"/>
      <point x="1009" y="0" type="line"/>
      <point x="1185" y="1204" type="line"/>
      <point x="1312" y="1222" type="line"/>
      <point x="1316" y="1292" type="line"/>
      <point x="944" y="1292" type="line"/>
      <point x="936" y="1222" type="line"/>
      <point x="1072" y="1206" type="line"/>
      <point x="926" y="70" type="line"/>
      <point x="960" y="74" type="line"/>
      <point x="869" y="337" type="line"/>
      <point x="469" y="1292" type="line"/>
      <point x="185" y="1292" type="line"/>
      <point x="173" y="1222" type="line"/>
      <point x="291" y="1204" type="line"/>
      <point x="137" y="82" type="line"/>
    </contour>
  </outline>
</glyph>
<glyph name="o.sc" format="1">
  <advance width="1179"/>
  <outline>
    <contour>
      <point x="150" y="1292" type="move" name="topleft"/>
    </contour>
    <contour>
      <point x="613" y="648" type="move" name="center"/>
    </contour>
    <contour>
      <point x="519" y="0" type="move" name="bottom"/>
    </contour>
    <contour>
      <point x="690" y="1292" type="move" name="top"/>
    </contour>
    <contour>
      <point x="923" y="1232" type="move" name="topright"/>
    </contour>
    <contour>
      <point x="681" y="18" type="move" name="ogonek"/>
    </contour>
    <contour>
      <point x="518" y="-18" type="curve"/>
      <point x="877" y="-18"/>
      <point x="1116" y="328"/>
      <point x="1110" y="772" type="curve"/>
      <point x="1106" y="1105"/>
      <point x="948" y="1310"/>
      <point x="684" y="1310" type="curve"/>
      <point x="334" y="1310"/>
      <point x="82" y="972"/>
      <point x="87" y="528" type="curve"/>
      <point x="90" y="216"/>
      <point x="236" y="-18"/>
    </contour>
    <contour>
      <point x="537" y="68" type="curve"/>
      <point x="350" y="68"/>
      <point x="246" y="270"/>
      <point x="244" y="546" type="curve"/>
      <point x="242" y="934"/>
      <point x="420" y="1222"/>
      <point x="663" y="1222" type="curve"/>
      <point x="848" y="1222"/>
      <point x="946" y="1036"/>
      <point x="950" y="740" type="curve"/>
      <point x="953" y="356"/>
      <point x="773" y="68"/>
    </contour>
  </outline>
</glyph>
<glyph name="oe.sc" format="1">
  <advance width="1827"/>
  <outline>
    <contour>
      <point x="528" y="-18" type="curve"/>
      <point x="712" y="-18"/>
      <point x="867" y="86"/>
      <point x="966" y="247" type="curve"/>
      <point x="937" y="0" type="line"/>
      <point x="1689" y="0" type="line"/>
      <point x="1749" y="270" type="line"/>
      <point x="1665" y="290" type="line"/>
      <point x="1583" y="102" type="line"/>
      <point x="1082" y="87" type="line"/>
      <point x="1151" y="624" type="line"/>
      <point x="1538" y="611" type="line"/>
      <point x="1552" y="734" type="line"/>
      <point x="1161" y="713" type="line"/>
      <point x="1226" y="1216" type="line"/>
      <point x="1631" y="1204" type="line"/>
      <point x="1660" y="1036" type="line"/>
      <point x="1746" y="1036" type="line"/>
      <point x="1755" y="1292" type="line"/>
      <point x="1096" y="1292" type="line"/>
      <point x="1061" y="1013" type="line"/>
      <point x="1004" y="1191"/>
      <point x="880" y="1308"/>
      <point x="690" y="1308" type="curve"/>
      <point x="343" y="1308"/>
      <point x="81" y="978"/>
      <point x="87" y="528" type="curve"/>
      <point x="90" y="179"/>
      <point x="265" y="-18"/>
    </contour>
    <contour>
      <point x="547" y="69" type="curve"/>
      <point x="338" y="69"/>
      <point x="246" y="278"/>
      <point x="244" y="583" type="curve"/>
      <point x="242" y="942"/>
      <point x="429" y="1220"/>
      <point x="671" y="1220" type="curve"/>
      <point x="858" y="1220"/>
      <point x="959" y="1069"/>
      <point x="962" y="744" type="curve"/>
      <point x="965" y="356"/>
      <point x="792" y="69"/>
    </contour>
  </outline>
</glyph>
<glyph name="p.sc" format="1">
  <advance width="1030"/>
  <outline>
    <contour>
      <point x="645" y="1292" type="move" name="top"/>
    </contour>
    <contour>
      <point x="15" y="62" type="line"/>
      <point x="8" y="0" type="line"/>
      <point x="451" y="0" type="line"/>
      <point x="459" y="62" type="line"/>
      <point x="294" y="84" type="line"/>
      <point x="459" y="1281" type="line"/>
      <point x="415" y="1203" type="line"/>
      <point x="448" y="1210"/>
      <point x="562" y="1224"/>
      <point x="605" y="1224" type="curve"/>
      <point x="779" y="1224"/>
      <point x="859" y="1146"/>
      <point x="856" y="965" type="curve"/>
      <point x="851" y="694"/>
      <point x="737" y="546"/>
      <point x="495" y="546" type="curve"/>
      <point x="449" y="546"/>
      <point x="403" y="550"/>
      <point x="343" y="560" type="curve"/>
      <point x="316" y="466" type="line"/>
      <point x="372" y="464"/>
      <point x="423" y="460"/>
      <point x="488" y="460" type="curve"/>
      <point x="782" y="460"/>
      <point x="1013" y="641"/>
      <point x="1017" y="973" type="curve"/>
      <point x="1020" y="1199"/>
      <point x="881" y="1306"/>
      <point x="631" y="1306" type="curve"/>
      <point x="542" y="1306"/>
      <point x="483" y="1292"/>
      <point x="391" y="1292" type="curve"/>
      <point x="187" y="1292" type="line"/>
      <point x="180" y="1222" type="line"/>
      <point x="295" y="1204" type="line"/>
      <point x="140" y="84" type="line"/>
    </contour>
  </outline>
</glyph>
<glyph name="q.sc" format="1">
  <advance width="1175"/>
  <outline>
    <contour>
      <point x="780" y="-312" type="curve"/>
      <point x="884" y="-312"/>
      <point x="984" y="-272"/>
      <point x="1026" y="-238" type="curve"/>
      <point x="1024" y="-138" type="line"/>
      <point x="973" y="-162"/>
      <point x="890" y="-180"/>
      <point x="829" y="-180" type="curve"/>
      <point x="704" y="-180"/>
      <point x="583" y="-157"/>
      <point x="581" y="-9" type="curve"/>
      <point x="489" y="-13" type="line"/>
      <point x="476" y="-93"/>
      <point x="491" y="-159"/>
      <point x="526" y="-207" type="curve"/>
      <point x="578" y="-277"/>
      <point x="673" y="-312"/>
    </contour>
    <contour>
      <point x="518" y="-18" type="curve"/>
      <point x="877" y="-18"/>
      <point x="1116" y="328"/>
      <point x="1110" y="772" type="curve"/>
      <point x="1106" y="1105"/>
      <point x="948" y="1310"/>
      <point x="684" y="1310" type="curve"/>
      <point x="334" y="1310"/>
      <point x="82" y="972"/>
      <point x="87" y="528" type="curve"/>
      <point x="90" y="216"/>
      <point x="236" y="-18"/>
    </contour>
    <contour>
      <point x="537" y="68" type="curve"/>
      <point x="350" y="68"/>
      <point x="246" y="270"/>
      <point x="244" y="546" type="curve"/>
      <point x="242" y="934"/>
      <point x="420" y="1222"/>
      <point x="663" y="1222" type="curve"/>
      <point x="848" y="1222"/>
      <point x="946" y="1036"/>
      <point x="950" y="740" type="curve"/>
      <point x="953" y="356"/>
      <point x="773" y="68"/>
    </contour>
  </outline>
</glyph>
<glyph name="r.sc" format="1">
  <advance width="1134"/>
  <outline>
    <contour>
      <point x="651" y="1292" type="move" name="top"/>
    </contour>
    <contour>
      <point x="576" y="0" type="move" name="bottom"/>
    </contour>
    <contour>
      <point x="20" y="62" type="line"/>
      <point x="15" y="0" type="line"/>
      <point x="436" y="0" type="line"/>
      <point x="441" y="62" type="line"/>
      <point x="278" y="84" type="line"/>
      <point x="442" y="1282" type="line"/>
      <point x="389" y="1204" type="line"/>
      <point x="445" y="1213"/>
      <point x="534" y="1224"/>
      <point x="596" y="1224" type="curve"/>
      <point x="775" y="1224"/>
      <point x="851" y="1145"/>
      <point x="849" y="1005" type="curve"/>
      <point x="846" y="820"/>
      <point x="756" y="663"/>
      <point x="559" y="652" type="curve"/>
      <point x="482" y="653"/>
      <point x="405" y="653"/>
      <point x="327" y="654" type="curve"/>
      <point x="311" y="571" type="line"/>
      <point x="385" y="571"/>
      <point x="461" y="571"/>
      <point x="535" y="571" type="curve"/>
      <point x="607" y="569"/>
      <point x="684" y="374"/>
      <point x="753" y="205" type="curve"/>
      <point x="812" y="41"/>
      <point x="844" y="0"/>
      <point x="882" y="0" type="curve"/>
      <point x="1066" y="0" type="line"/>
      <point x="1070" y="70" type="line"/>
      <point x="956" y="70"/>
      <point x="952" y="99"/>
      <point x="867" y="290" type="curve"/>
      <point x="828" y="374"/>
      <point x="733" y="583"/>
      <point x="671" y="600" type="curve"/>
      <point x="639" y="576" type="line"/>
      <point x="876" y="618"/>
      <point x="998" y="789"/>
      <point x="1001" y="1015" type="curve"/>
      <point x="1004" y="1211"/>
      <point x="874" y="1306"/>
      <point x="626" y="1306" type="curve"/>
      <point x="535" y="1306"/>
      <point x="470" y="1292"/>
      <point x="394" y="1292" type="curve"/>
      <point x="184" y="1292" type="line"/>
      <point x="175" y="1222" type="line"/>
      <point x="288" y="1204" type="line"/>
      <point x="135" y="84" type="line"/>
    </contour>
  </outline>
</glyph>
<glyph name="s.sc" format="1">
  <advance width="926"/>
  <outline>
    <contour>
      <point x="573" y="1292" type="move" name="top"/>
    </contour>
    <contour>
      <point x="392" y="0" type="move" name="bottom"/>
    </contour>
    <contour>
      <point x="391" y="-20" type="curve"/>
      <point x="653" y="-20"/>
      <point x="828" y="135"/>
      <point x="831" y="364" type="curve"/>
      <point x="834" y="557"/>
      <point x="673" y="646"/>
      <point x="558" y="719" type="curve"/>
      <point x="433" y="795"/>
      <point x="311" y="855"/>
      <point x="314" y="1024" type="curve"/>
      <point x="316" y="1164"/>
      <point x="442" y="1223"/>
      <point x="561" y="1223" type="curve"/>
      <point x="658" y="1223"/>
      <point x="717" y="1197"/>
      <point x="752" y="1169" type="curve"/>
      <point x="762" y="1004" type="line"/>
      <point x="846" y="1004" type="line"/>
      <point x="886" y="1230" type="line"/>
      <point x="839" y="1262"/>
      <point x="737" y="1306"/>
      <point x="575" y="1306" type="curve"/>
      <point x="350" y="1306"/>
      <point x="171" y="1178"/>
      <point x="168" y="964" type="curve"/>
      <point x="164" y="753"/>
      <point x="337" y="662"/>
      <point x="460" y="588" type="curve"/>
      <point x="580" y="514"/>
      <point x="678" y="461"/>
      <point x="681" y="294" type="curve"/>
      <point x="673" y="136"/>
      <point x="528" y="64"/>
      <point x="392" y="64" type="curve"/>
      <point x="309" y="64"/>
      <point x="205" y="96"/>
      <point x="179" y="143" type="curve"/>
      <point x="169" y="322" type="line"/>
      <point x="78" y="322" type="line"/>
      <point x="41" y="81" type="line"/>
      <point x="81" y="44"/>
      <point x="229" y="-20"/>
    </contour>
  </outline>
</glyph>
<glyph name="schwa.sc" format="1">
  <advance width="1109"/>
  <outline>
    <contour>
      <point x="427" y="-20" type="curve"/>
      <point x="757" y="-20"/>
      <point x="1036" y="314"/>
      <point x="1044" y="772" type="curve"/>
      <point x="1049" y="1102"/>
      <point x="888" y="1306"/>
      <point x="629" y="1306" type="curve"/>
      <point x="385" y="1306"/>
      <point x="292" y="1242"/>
      <point x="197" y="1238" type="curve"/>
      <point x="157" y="988" type="line"/>
      <point x="239" y="988" type="line"/>
      <point x="295" y="1140" type="line"/>
      <point x="340" y="1180"/>
      <point x="437" y="1228"/>
      <point x="586" y="1228" type="curve"/>
      <point x="768" y="1228"/>
      <point x="894" y="1064"/>
      <point x="887" y="750" type="curve"/>
      <point x="887" y="718"/>
      <point x="885" y="686"/>
      <point x="882" y="655" type="curve"/>
      <point x="98" y="654" type="line"/>
      <point x="80" y="608"/>
      <point x="65" y="514"/>
      <point x="64" y="420" type="curve"/>
      <point x="59" y="138"/>
      <point x="194" y="-20"/>
    </contour>
    <contour>
      <point x="467" y="64" type="curve"/>
      <point x="294" y="64"/>
      <point x="212" y="220"/>
      <point x="214" y="392" type="curve"/>
      <point x="215" y="456"/>
      <point x="227" y="518"/>
      <point x="241" y="576" type="curve"/>
      <point x="872" y="576" type="line"/>
      <point x="823" y="232"/>
      <point x="661" y="64"/>
    </contour>
  </outline>
</glyph>
<glyph name="t.sc" format="1">
  <advance width="1077"/>
  <outline>
    <contour>
      <point x="636" y="1292" type="move" name="top"/>
    </contour>
    <contour>
      <point x="467" y="0" type="move" name="bottom"/>
    </contour>
    <contour>
      <point x="191" y="67" type="line"/>
      <point x="187" y="0" type="line"/>
      <point x="760" y="0" type="line"/>
      <point x="765" y="67" type="line"/>
      <point x="551" y="82" type="line"/>
      <point x="706" y="1216" type="line"/>
      <point x="1002" y="1202" type="line"/>
      <point x="992" y="898" type="line"/>
      <point x="1074" y="900" type="line"/>
      <point x="1130" y="1292" type="line"/>
      <point x="142" y="1292" type="line"/>
      <point x="79" y="900" type="line"/>
      <point x="166" y="900" type="line"/>
      <point x="247" y="1202" type="line"/>
      <point x="554" y="1216" type="line"/>
      <point x="399" y="82" type="line"/>
    </contour>
  </outline>
</glyph>
<glyph name="u.sc" format="1">
  <advance width="1177"/>
  <outline>
    <contour>
      <point x="674" y="1292" type="move" name="top"/>
    </contour>
    <contour>
      <point x="645" y="16" type="move" name="ogonek"/>
    </contour>
    <contour>
      <point x="1249" y="1292" type="move" name="topright"/>
    </contour>
    <contour>
      <point x="510" y="0" type="move" name="bottom"/>
    </contour>
    <contour>
      <point x="517" y="-18" type="curve"/>
      <point x="814" y="-18"/>
      <point x="974" y="134"/>
      <point x="1026" y="532" type="curve"/>
      <point x="1115" y="1206" type="line"/>
      <point x="1224" y="1222" type="line"/>
      <point x="1233" y="1292" type="line"/>
      <point x="887" y="1292" type="line"/>
      <point x="881" y="1222" type="line"/>
      <point x="997" y="1204" type="line"/>
      <point x="907" y="532" type="line" smooth="yes"/>
      <point x="869" y="244"/>
      <point x="771" y="62"/>
      <point x="541" y="62" type="curve"/>
      <point x="317" y="62"/>
      <point x="258" y="241"/>
      <point x="293" y="516" type="curve"/>
      <point x="385" y="1204" type="line"/>
      <point x="521" y="1222" type="line"/>
      <point x="528" y="1292" type="line"/>
      <point x="120" y="1292" type="line"/>
      <point x="114" y="1222" type="line"/>
      <point x="230" y="1206" type="line"/>
      <point x="139" y="504" type="line" smooth="yes"/>
      <point x="96" y="177"/>
      <point x="226" y="-18"/>
    </contour>
  </outline>
</glyph>
<glyph name="v.sc" format="1">
  <advance width="1027"/>
  <outline>
    <contour>
      <point x="684" y="1444" type="move" name="top"/>
    </contour>
    <contour>
      <point x="163" y="1204" type="line"/>
      <point x="361" y="-16" type="line"/>
      <point x="495" y="-8" type="line"/>
      <point x="1045" y="1206" type="line"/>
      <point x="1148" y="1222" type="line"/>
      <point x="1156" y="1292" type="line"/>
      <point x="804" y="1292" type="line"/>
      <point x="798" y="1222" type="line"/>
      <point x="928" y="1204" type="line"/>
      <point x="567" y="389" type="line"/>
      <point x="438" y="68" type="line"/>
      <point x="476" y="64" type="line"/>
      <point x="433" y="389" type="line"/>
      <point x="317" y="1204" type="line"/>
      <point x="467" y="1222" type="line"/>
      <point x="475" y="1292" type="line"/>
      <point x="52" y="1292" type="line"/>
      <point x="45" y="1222" type="line"/>
    </contour>
  </outline>
</glyph>
<glyph name="w.sc" format="1">
  <advance width="1533"/>
  <outline>
    <contour>
      <point x="886" y="1292" type="move" name="top"/>
    </contour>
    <contour>
      <point x="700" y="0" type="move" name="bottom"/>
    </contour>
    <contour>
      <point x="147" y="1204" type="line"/>
      <point x="315" y="-8" type="line"/>
      <point x="462" y="-8" type="line"/>
      <point x="856" y="975" type="line"/>
      <point x="830" y="1169" type="line"/>
      <point x="500" y="332" type="line"/>
      <point x="402" y="69" type="line"/>
      <point x="439" y="66" type="line"/>
      <point x="396" y="376" type="line"/>
      <point x="294" y="1206" type="line"/>
      <point x="445" y="1222" type="line"/>
      <point x="449" y="1292" type="line"/>
      <point x="33" y="1292" type="line"/>
      <point x="26" y="1222" type="line"/>
    </contour>
    <contour>
      <point x="779" y="1206" type="line"/>
      <point x="907" y="-8" type="line"/>
      <point x="1056" y="-8" type="line"/>
      <point x="1584" y="1204" type="line"/>
      <point x="1704" y="1222" type="line"/>
      <point x="1714" y="1292" type="line"/>
      <point x="1339" y="1292" type="line"/>
      <point x="1333" y="1222" type="line"/>
      <point x="1466" y="1204" type="line"/>
      <point x="1110" y="350" type="line"/>
      <point x="999" y="70" type="line"/>
      <point x="1032" y="66" type="line"/>
      <point x="1010" y="376" type="line"/>
      <point x="932" y="1206" type="line"/>
      <point x="1079" y="1222" type="line"/>
      <point x="1092" y="1292" type="line"/>
      <point x="669" y="1292" type="line"/>
      <point x="660" y="1222" type="line"/>
    </contour>
  </outline>
</glyph>
<glyph name="x.sc" format="1">
  <advance width="1136"/>
  <outline>
    <contour>
      <point x="-33" y="62" type="line"/>
      <point x="-39" y="0" type="line"/>
      <point x="360" y="0" type="line"/>
      <point x="368" y="62" type="line"/>
      <point x="220" y="84" type="line"/>
      <point x="550" y="560" type="line"/>
      <point x="656" y="660" type="line"/>
      <point x="1063" y="1206" type="line"/>
      <point x="1185" y="1222" type="line"/>
      <point x="1190" y="1292" type="line"/>
      <point x="794" y="1292" type="line"/>
      <point x="788" y="1222" type="line"/>
      <point x="927" y="1204" type="line"/>
      <point x="613" y="748" type="line"/>
      <point x="507" y="652" type="line"/>
      <point x="80" y="82" type="line"/>
    </contour>
    <contour>
      <point x="611" y="62" type="line"/>
      <point x="607" y="0" type="line"/>
      <point x="1068" y="0" type="line"/>
      <point x="1071" y="62" type="line"/>
      <point x="938" y="84" type="line"/>
      <point x="656" y="660" type="line"/>
      <point x="613" y="748" type="line"/>
      <point x="428" y="1206" type="line"/>
      <point x="570" y="1222" type="line"/>
      <point x="577" y="1292" type="line"/>
      <point x="136" y="1292" type="line"/>
      <point x="127" y="1222" type="line"/>
      <point x="251" y="1202" type="line"/>
      <point x="507" y="652" type="line"/>
      <point x="550" y="560" type="line"/>
      <point x="758" y="82" type="line"/>
    </contour>
  </outline>
</glyph>
<glyph name="y.sc" format="1">
  <advance width="1013"/>
  <outline>
    <contour>
      <point x="151" y="1292" type="move" name="topleft"/>
    </contour>
    <contour>
      <point x="626" y="1292" type="move" name="top"/>
    </contour>
    <contour>
      <point x="462" y="0" type="move" name="bottom"/>
    </contour>
    <contour>
      <point x="203" y="62" type="line"/>
      <point x="198" y="0" type="line"/>
      <point x="730" y="0" type="line"/>
      <point x="736" y="62" type="line"/>
      <point x="547" y="84" type="line"/>
      <point x="612" y="569" type="line"/>
      <point x="562" y="442" type="line"/>
      <point x="1032" y="1206" type="line"/>
      <point x="1128" y="1222" type="line"/>
      <point x="1135" y="1292" type="line"/>
      <point x="783" y="1292" type="line"/>
      <point x="773" y="1222" type="line"/>
      <point x="905" y="1204" type="line"/>
      <point x="622" y="704" type="line"/>
      <point x="517" y="531" type="line"/>
      <point x="579" y="525" type="line"/>
      <point x="516" y="706" type="line"/>
      <point x="322" y="1204" type="line"/>
      <point x="478" y="1222" type="line"/>
      <point x="488" y="1292" type="line"/>
      <point x="56" y="1292" type="line"/>
      <point x="50" y="1222" type="line"/>
      <point x="150" y="1204" type="line"/>
      <point x="483" y="438" type="line"/>
      <point x="462" y="569" type="line"/>
      <point x="400" y="84" type="line"/>
    </contour>
  </outline>
</glyph>
<glyph name="z.sc" format="1">
  <advance width="1016"/>
  <outline>
    <contour>
      <point x="597" y="1292" type="move" name="top"/>
    </contour>
    <contour>
      <point x="455" y="0" type="move" name="bottom"/>
    </contour>
    <contour>
      <point x="-2" y="64" type="line"/>
      <point x="17" y="0" type="line"/>
      <point x="881" y="0" type="line"/>
      <point x="960" y="308" type="line"/>
      <point x="871" y="332" type="line"/>
      <point x="762" y="96" type="line"/>
      <point x="181" y="78" type="line"/>
      <point x="300" y="230" type="line"/>
      <point x="1028" y="1232" type="line"/>
      <point x="1011" y="1292" type="line"/>
      <point x="209" y="1292" type="line"/>
      <point x="161" y="996" type="line"/>
      <point x="248" y="980" type="line"/>
      <point x="326" y="1204" type="line"/>
      <point x="855" y="1210" type="line"/>
      <point x="712" y="1042" type="line"/>
    </contour>
  </outline>
</glyph>
